<svg width="29" height="35" viewBox="0 0 29 35" fill="none" xmlns="http://www.w3.org/2000/svg">
<path d="M23.5497 18.5338C23.5497 14.2228 27.1653 12.1369 27.3043 11.9978C25.2184 9.07752 22.159 8.66034 21.0465 8.52128C18.4044 8.24315 15.7622 10.051 14.5106 10.051C13.12 10.051 11.034 8.52128 8.80903 8.52128C5.88872 8.52128 3.24653 10.19 1.71685 12.8322C-1.34253 18.1166 0.882473 25.9041 3.80278 30.215C5.33247 32.301 7.00122 34.665 9.22622 34.526C11.4512 34.3869 12.2856 33.1353 14.9278 33.1353C17.57 33.1353 18.2653 34.526 20.6293 34.526C22.9934 34.526 24.5231 32.44 25.9137 30.3541C27.5825 27.99 28.2778 25.626 28.2778 25.4869C28.1387 25.3478 23.5497 23.6791 23.5497 18.5338Z" fill="white"/>
<path d="M19.2349 5.74023C20.3474 4.21055 21.1818 2.26367 21.0427 0.177734C19.374 0.316797 17.149 1.29023 16.0365 2.81992C14.924 4.07148 13.9505 6.15742 14.2287 8.1043C16.0365 8.24336 17.9834 7.13086 19.2349 5.74023Z" fill="white"/>
</svg>
