<svg width="178" height="56" viewBox="0 0 178 56" fill="none" xmlns="http://www.w3.org/2000/svg">
<path d="M172.438 55.625H5.5625C2.50312 55.625 0 53.1219 0 50.0625V5.5625C0 2.50312 2.50312 0 5.5625 0H172.438C175.497 0 178 2.50312 178 5.5625V50.0625C178 53.1219 175.497 55.625 172.438 55.625Z" fill="#0E2C65"/>
<path d="M37.5497 27.5338C37.5497 23.2228 41.1653 21.1369 41.3043 20.9978C39.2184 18.0775 36.159 17.6603 35.0465 17.5213C32.4044 17.2432 29.7622 19.051 28.5106 19.051C27.12 19.051 25.034 17.5213 22.809 17.5213C19.8887 17.5213 17.2465 19.19 15.7168 21.8322C12.6575 27.1166 14.8825 34.9041 17.8028 39.215C19.3325 41.301 21.0012 43.665 23.2262 43.526C25.4512 43.3869 26.2856 42.1353 28.9278 42.1353C31.57 42.1353 32.2653 43.526 34.6293 43.526C36.9934 43.526 38.5231 41.44 39.9137 39.3541C41.5825 36.99 42.2778 34.626 42.2778 34.4869C42.1387 34.3478 37.5497 32.6791 37.5497 27.5338Z" fill="white"/>
<path d="M33.2349 14.7407C34.3474 13.211 35.1818 11.2642 35.0427 9.17822C33.374 9.31729 31.149 10.2907 30.0365 11.8204C28.924 13.072 27.9505 15.1579 28.2287 17.1048C30.0365 17.2438 31.9834 16.1313 33.2349 14.7407Z" fill="white"/>
<path d="M69.2531 43.2486H66.1938L64.525 37.9643H58.6844L57.1547 43.2486H54.2344L60.075 25.3096H63.6906L69.2531 43.2486ZM63.9687 35.7393L62.4391 31.0111C62.3 30.5939 62.0219 29.3424 61.4656 27.6736C61.3266 28.3689 61.0484 29.6205 60.6313 31.0111L59.1016 35.7393H63.9687Z" fill="white"/>
<path d="M84.1328 36.7127C84.1328 38.9377 83.5766 40.6064 82.325 41.9971C81.2125 43.1096 79.9609 43.6658 78.2922 43.6658C76.6234 43.6658 75.3719 43.1096 74.6766 41.858V48.6721H71.7563V34.7658C71.7563 33.3752 71.7563 31.9846 71.6172 30.4549H74.1203L74.2594 32.5408C75.2328 31.0111 76.6234 30.1768 78.5703 30.1768C80.1 30.1768 81.3516 30.733 82.325 31.9846C83.5766 33.0971 84.1328 34.6268 84.1328 36.7127ZM81.2125 36.7127C81.2125 35.4611 80.9344 34.3486 80.3781 33.6533C79.8219 32.8189 78.9875 32.4018 77.875 32.4018C77.1797 32.4018 76.4844 32.6799 75.9281 33.0971C75.3719 33.5143 74.9547 34.2096 74.8156 34.9049C74.6766 35.3221 74.6766 35.6002 74.6766 35.7393V37.9643C74.6766 38.9377 74.9547 39.633 75.5109 40.3283C76.0672 41.0236 76.9016 41.3018 77.7359 41.3018C78.8484 41.3018 79.6828 40.8846 80.2391 40.0502C80.9344 39.2158 81.2125 38.1033 81.2125 36.7127Z" fill="white"/>
<path d="M99.0127 36.7127C99.0127 38.9377 98.4564 40.6064 97.2049 41.9971C96.0924 43.1096 94.8408 43.6658 93.1721 43.6658C91.5033 43.6658 90.2518 43.1096 89.5564 41.858V48.6721H86.6361V34.7658C86.6361 33.3752 86.6361 31.9846 86.4971 30.4549H89.0002L89.1393 32.5408C90.1127 31.0111 91.5033 30.1768 93.4502 30.1768C94.9799 30.1768 96.2314 30.733 97.2049 31.9846C98.4564 33.0971 99.0127 34.6268 99.0127 36.7127ZM96.0924 36.7127C96.0924 35.4611 95.8143 34.3486 95.258 33.6533C94.7018 32.8189 93.8674 32.4018 92.7549 32.4018C92.0596 32.4018 91.3643 32.6799 90.808 33.0971C90.2518 33.5143 89.8346 34.2096 89.6955 34.9049C89.5564 35.3221 89.5564 35.6002 89.5564 35.7393V37.9643C89.5564 38.9377 89.8346 39.633 90.3908 40.3283C90.9471 41.0236 91.7814 41.3018 92.6158 41.3018C93.7283 41.3018 94.5627 40.8846 95.1189 40.0502C95.8143 39.2158 96.0924 38.1033 96.0924 36.7127Z" fill="white"/>
<path d="M115.7 38.2423C115.7 39.772 115.144 41.0235 114.17 41.997C113.058 43.1095 111.389 43.5267 109.303 43.5267C107.356 43.5267 105.826 43.1095 104.714 42.4142L105.409 40.0501C106.661 40.7454 108.051 41.1626 109.581 41.1626C110.694 41.1626 111.528 40.8845 112.084 40.4673C112.64 39.911 112.919 39.3548 112.919 38.5204C112.919 37.8251 112.64 37.1298 112.223 36.7126C111.667 36.1564 110.833 35.7392 109.72 35.322C106.522 34.2095 104.992 32.4017 104.992 30.1767C104.992 28.647 105.548 27.5345 106.661 26.561C107.773 25.5876 109.164 25.1704 111.111 25.1704C112.779 25.1704 114.031 25.4485 115.144 26.0048L114.448 28.3689C113.475 27.8126 112.362 27.5345 110.972 27.5345C109.998 27.5345 109.164 27.8126 108.608 28.2298C108.19 28.647 107.912 29.2032 107.912 29.8985C107.912 30.5938 108.19 31.1501 108.747 31.7063C109.164 32.1235 110.137 32.5407 111.389 33.097C112.919 33.6532 114.031 34.4876 114.865 35.322C115.283 36.0173 115.7 36.9907 115.7 38.2423Z" fill="white"/>
<path d="M125.156 32.5406H121.958V38.7984C121.958 40.3281 122.514 41.1625 123.626 41.1625C124.183 41.1625 124.6 41.1625 124.878 41.0234L125.017 43.2484C124.461 43.5266 123.765 43.5266 122.792 43.5266C121.679 43.5266 120.706 43.2484 120.15 42.5531C119.455 41.8578 119.176 40.7453 119.176 39.0766V32.5406H117.229V30.3156H119.176V27.9516L121.958 27.1172V30.3156H125.156V32.5406Z" fill="white"/>
<path d="M139.48 36.7126C139.48 38.6595 138.924 40.3282 137.811 41.5798C136.56 42.8314 135.03 43.5267 133.083 43.5267C131.136 43.5267 129.606 42.8314 128.494 41.5798C127.381 40.3282 126.825 38.7985 126.825 36.8517C126.825 34.9048 127.381 33.236 128.633 31.9845C129.746 30.7329 131.414 30.0376 133.361 30.0376C135.308 30.0376 136.838 30.7329 137.95 31.9845C138.924 33.236 139.48 34.7657 139.48 36.7126ZM136.421 36.8517C136.421 35.6001 136.142 34.6267 135.586 33.7923C135.03 32.8188 134.056 32.2626 132.944 32.2626C131.831 32.2626 130.858 32.8188 130.302 33.7923C129.746 34.6267 129.467 35.7392 129.467 36.8517C129.467 38.1032 129.746 39.0767 130.302 39.911C130.858 40.8845 131.831 41.4407 132.944 41.4407C134.056 41.4407 134.891 40.8845 135.586 39.911C136.142 39.0767 136.421 37.9642 136.421 36.8517Z" fill="white"/>
<path d="M148.797 32.8187C148.519 32.8187 148.241 32.6797 147.824 32.6797C146.85 32.6797 146.016 33.0969 145.46 33.7922C145.043 34.4875 144.764 35.3219 144.764 36.2953V43.1094H141.844V34.2094C141.844 32.6797 141.844 31.4281 141.705 30.1766H144.208L144.347 32.6797H144.486C144.764 31.8453 145.321 31.15 145.877 30.5938C146.572 30.1766 147.268 29.8984 147.963 29.8984C148.241 29.8984 148.519 29.8984 148.658 29.8984V32.8187H148.797Z" fill="white"/>
<path d="M161.591 36.1563C161.591 36.7126 161.591 37.1298 161.452 37.4079H152.83C152.83 38.6595 153.247 39.6329 154.082 40.3282C154.777 40.8845 155.75 41.3017 156.863 41.3017C158.114 41.3017 159.366 41.1626 160.339 40.7454L160.757 42.6923C159.505 43.2485 158.114 43.5267 156.446 43.5267C154.499 43.5267 152.83 42.9704 151.718 41.7189C150.605 40.6063 150.049 38.9376 150.049 36.9907C150.049 35.0438 150.605 33.3751 151.579 32.1235C152.691 30.7329 154.221 30.0376 156.168 30.0376C157.975 30.0376 159.505 30.7329 160.339 32.1235C161.313 33.236 161.591 34.6267 161.591 36.1563ZM158.949 35.461C158.949 34.6267 158.81 33.9314 158.393 33.236C157.836 32.4017 157.141 31.9845 156.168 31.9845C155.194 31.9845 154.499 32.4017 153.943 33.097C153.525 33.6532 153.247 34.4876 153.108 35.322H158.949V35.461Z" fill="white"/>
<path d="M63.1346 14.3232C63.1346 15.8529 62.7174 17.1045 61.7439 17.9389C60.9096 18.6342 59.658 19.0514 57.9893 19.0514C57.1549 19.0514 56.4596 19.0514 55.9033 18.9123V10.2904C56.5986 10.1514 57.433 10.1514 58.4064 10.1514C59.9361 10.1514 61.0486 10.4295 61.883 11.1248C62.5783 11.8201 63.1346 12.9326 63.1346 14.3232ZM61.6049 14.3232C61.6049 13.3498 61.3268 12.5154 60.7705 11.9592C60.2143 11.4029 59.3799 11.1248 58.4064 11.1248C57.9893 11.1248 57.5721 11.1248 57.2939 11.2639V17.7998C57.433 17.7998 57.8502 17.7998 58.2674 17.7998C59.3799 17.7998 60.2143 17.5217 60.7705 16.9654C61.3268 16.4092 61.6049 15.4357 61.6049 14.3232Z" fill="white"/>
<path d="M70.9219 15.714C70.9219 16.6874 70.6438 17.5218 70.0875 18.078C69.5313 18.7733 68.6969 19.0515 67.7234 19.0515C66.75 19.0515 66.0547 18.7733 65.4984 18.078C64.9422 17.5218 64.6641 16.6874 64.6641 15.714C64.6641 14.7405 64.9422 13.9062 65.4984 13.3499C66.0547 12.6546 66.8891 12.3765 67.8625 12.3765C68.8359 12.3765 69.5313 12.6546 70.0875 13.3499C70.6438 13.9062 70.9219 14.7405 70.9219 15.714ZM69.5312 15.714C69.5312 15.1577 69.3922 14.6015 69.1141 14.1843C68.8359 13.628 68.4188 13.489 67.8625 13.489C67.3063 13.489 66.8891 13.7671 66.6109 14.1843C66.3328 14.6015 66.1938 15.1577 66.1938 15.714C66.1938 16.2702 66.3328 16.8265 66.6109 17.2437C66.8891 17.7999 67.3063 17.939 67.8625 17.939C68.4188 17.939 68.8359 17.6608 69.1141 17.1046C69.3922 16.8265 69.5312 16.2702 69.5312 15.714Z" fill="white"/>
<path d="M81.6297 12.5156L79.6828 18.9125H78.4313L77.5969 16.1313C77.3188 15.4359 77.1797 14.7406 77.0406 14.0453C76.9016 14.7406 76.7625 15.4359 76.4844 16.1313L75.65 18.9125H74.3984L72.3125 12.5156H73.7031L74.3984 15.575C74.5375 16.2703 74.6766 16.9656 74.8156 17.6609C74.9547 17.1047 75.0938 16.4094 75.3719 15.575L76.2063 12.5156H77.3188L78.1531 15.4359C78.4313 16.1313 78.5703 16.8266 78.7094 17.5219C78.8484 16.8266 78.9875 16.1313 79.1266 15.4359L79.9609 12.5156H81.6297Z" fill="white"/>
<path d="M88.8609 18.9123H87.4703V15.2967C87.4703 14.1842 87.0531 13.6279 86.2187 13.6279C85.8016 13.6279 85.5234 13.767 85.2453 14.0451C84.9672 14.3232 84.8281 14.7404 84.8281 15.1576V18.9123H83.4375V14.3232C83.4375 13.767 83.4375 13.2107 83.4375 12.5154H84.6891V13.4889C84.8281 13.2107 85.1063 12.9326 85.3844 12.6545C85.8016 12.3764 86.2188 12.2373 86.6359 12.2373C87.1922 12.2373 87.7484 12.3764 88.1656 12.7936C88.7219 13.2107 88.8609 13.9061 88.8609 14.8795V18.9123Z" fill="white"/>
<path d="M92.7549 18.9124H91.3643V9.59521H92.7549V18.9124Z" fill="white"/>
<path d="M101.099 15.714C101.099 16.6874 100.821 17.5218 100.264 18.078C99.708 18.7733 98.8736 19.0515 97.9002 19.0515C96.9268 19.0515 96.2314 18.7733 95.6752 18.078C95.1189 17.5218 94.8408 16.6874 94.8408 15.714C94.8408 14.7405 95.1189 13.9062 95.6752 13.3499C96.2314 12.7937 97.0658 12.3765 98.0393 12.3765C99.0127 12.3765 99.708 12.6546 100.264 13.3499C100.821 13.9062 101.099 14.7405 101.099 15.714ZM99.708 15.714C99.708 15.1577 99.5689 14.6015 99.2908 14.1843C99.0127 13.628 98.5955 13.489 98.0393 13.489C97.483 13.489 97.0658 13.7671 96.7877 14.1843C96.5096 14.6015 96.3705 15.1577 96.3705 15.714C96.3705 16.2702 96.5096 16.8265 96.7877 17.2437C97.0658 17.7999 97.483 17.939 98.0393 17.939C98.5955 17.939 99.0127 17.6608 99.2908 17.1046C99.5689 16.8265 99.708 16.2702 99.708 15.714Z" fill="white"/>
<path d="M107.913 18.9124H106.661L106.522 18.2171C106.105 18.7733 105.41 19.0515 104.714 19.0515C104.158 19.0515 103.602 18.9124 103.324 18.4952C103.046 18.078 102.768 17.6608 102.768 17.2437C102.768 16.4093 103.046 15.853 103.741 15.4358C104.436 15.0187 105.271 14.8796 106.522 14.8796V14.7405C106.522 13.9062 106.105 13.489 105.271 13.489C104.575 13.489 104.158 13.628 103.602 13.9062L103.324 12.9327C103.88 12.5155 104.575 12.3765 105.549 12.3765C107.218 12.3765 108.052 13.2108 108.052 15.0187V17.3827C107.913 18.078 107.913 18.4952 107.913 18.9124ZM106.522 16.6874V15.714C104.993 15.714 104.158 16.1312 104.158 16.9655C104.158 17.2437 104.297 17.5218 104.436 17.6608C104.575 17.7999 104.854 17.939 105.132 17.939C105.41 17.939 105.688 17.7999 105.966 17.6608C106.244 17.5218 106.383 17.2437 106.522 16.9655C106.522 16.9655 106.522 16.8265 106.522 16.6874Z" fill="white"/>
<path d="M115.978 18.9125H114.726V17.9391C114.309 18.7734 113.614 19.0516 112.64 19.0516C111.806 19.0516 111.25 18.7734 110.693 18.2172C110.137 17.6609 109.998 16.8266 109.998 15.8531C109.998 14.8797 110.276 14.0453 110.832 13.35C111.389 12.7938 112.084 12.5156 112.779 12.5156C113.614 12.5156 114.17 12.7938 114.587 13.35V9.73438H115.978V17.2437C115.978 17.8 115.978 18.3562 115.978 18.9125ZM114.587 16.2703V15.1578C114.587 15.0187 114.587 14.8797 114.587 14.7406C114.448 14.4625 114.309 14.1844 114.031 13.9062C113.753 13.6281 113.475 13.6281 113.057 13.6281C112.501 13.6281 112.084 13.9062 111.806 14.3234C111.528 14.7406 111.389 15.2969 111.389 15.9922C111.389 16.6875 111.528 17.1047 111.806 17.5219C112.084 17.9391 112.501 18.2172 113.057 18.2172C113.475 18.2172 113.892 18.0781 114.17 17.6609C114.448 17.1047 114.587 16.6875 114.587 16.2703Z" fill="white"/>
<path d="M128.076 15.714C128.076 16.6874 127.798 17.5218 127.242 18.078C126.686 18.7733 125.851 19.0515 124.878 19.0515C123.904 19.0515 123.209 18.7733 122.653 18.078C122.096 17.5218 121.818 16.6874 121.818 15.714C121.818 14.7405 122.096 13.9062 122.653 13.3499C123.209 12.6546 124.043 12.3765 125.017 12.3765C125.99 12.3765 126.686 12.6546 127.242 13.3499C127.798 13.9062 128.076 14.7405 128.076 15.714ZM126.546 15.714C126.546 15.1577 126.407 14.6015 126.129 14.1843C125.851 13.628 125.434 13.489 124.878 13.489C124.321 13.489 123.904 13.7671 123.626 14.1843C123.348 14.6015 123.209 15.1577 123.209 15.714C123.209 16.2702 123.348 16.8265 123.626 17.2437C123.904 17.7999 124.321 17.939 124.878 17.939C125.434 17.939 125.851 17.6608 126.129 17.1046C126.407 16.8265 126.546 16.2702 126.546 15.714Z" fill="white"/>
<path d="M135.725 18.9123H134.335V15.2967C134.335 14.1842 133.917 13.6279 133.083 13.6279C132.666 13.6279 132.388 13.767 132.11 14.0451C131.831 14.3232 131.692 14.7404 131.692 15.1576V18.9123H130.302V14.3232C130.302 13.767 130.302 13.2107 130.302 12.5154H131.553V13.4889C131.692 13.2107 131.971 12.9326 132.249 12.6545C132.666 12.3764 133.083 12.2373 133.5 12.2373C134.056 12.2373 134.613 12.3764 135.03 12.7936C135.586 13.2107 135.725 13.9061 135.725 14.8795V18.9123Z" fill="white"/>
<path d="M145.181 13.628H143.652V16.6874C143.652 17.5218 143.93 17.7999 144.486 17.7999C144.764 17.7999 144.903 17.7999 145.181 17.7999V18.9124C144.903 19.0515 144.486 19.0515 144.069 19.0515C143.513 19.0515 143.096 18.9124 142.817 18.4952C142.539 18.2171 142.4 17.5218 142.4 16.8265V13.628H141.427V12.5155H142.4V11.403L143.791 10.9858V12.5155H145.321V13.628H145.181Z" fill="white"/>
<path d="M152.691 18.9124H151.3V15.2968C151.3 14.1843 150.883 13.628 150.049 13.628C149.354 13.628 148.936 13.9062 148.658 14.6015C148.658 14.7405 148.658 14.8796 148.658 15.1577V18.9124H147.268V9.59521H148.658V13.489C149.075 12.7937 149.771 12.3765 150.605 12.3765C151.161 12.3765 151.718 12.5155 151.996 12.9327C152.413 13.3499 152.691 14.1843 152.691 15.0187V18.9124Z" fill="white"/>
<path d="M160.339 15.4359C160.339 15.7141 160.339 15.8531 160.339 16.1313H156.167C156.167 16.8266 156.445 17.2438 156.723 17.5219C157.14 17.8 157.558 17.9391 158.114 17.9391C158.809 17.9391 159.365 17.8 159.783 17.6609L160.061 18.6344C159.504 18.9125 158.809 19.0516 157.975 19.0516C157.001 19.0516 156.167 18.7734 155.611 18.2172C155.055 17.6609 154.776 16.8266 154.776 15.8531C154.776 14.8797 155.055 14.0453 155.611 13.4891C156.167 12.7938 156.862 12.5156 157.836 12.5156C158.809 12.5156 159.504 12.7938 159.922 13.4891C160.2 13.9063 160.339 14.6016 160.339 15.4359ZM159.087 15.0187C159.087 14.6016 158.948 14.1844 158.809 13.9062C158.531 13.4891 158.253 13.35 157.697 13.35C157.28 13.35 156.862 13.4891 156.584 13.9062C156.306 14.1844 156.167 14.6016 156.167 15.0187H159.087Z" fill="white"/>
</svg>
