<svg width="57" height="100" viewBox="0 0 57 100" fill="none" xmlns="http://www.w3.org/2000/svg">
<path d="M56.6216 27.8038H49.3874V17.305L28.3104 0L7.23419 17.305V27.8038H0V84.4254H3.33099V100H9.20868V84.4254H47.4129V100H53.2906V84.4254H56.6216V27.8038ZM38.7131 16.1453H17.9085L28.3104 7.60498L38.7131 16.1453ZM13.1119 22.023H43.5097V27.8038H13.1119V22.023ZM5.87769 78.5469V33.6815H50.7439V78.5469H5.87769Z" fill="#001632"/>
<path d="M28.3108 37.9297C18.2843 37.9297 10.127 46.087 10.127 56.1136C10.127 66.1401 18.2843 74.2975 28.3108 74.2975C38.3382 74.2975 46.4955 66.1401 46.4955 56.1136C46.4955 46.087 38.3382 37.9297 28.3108 37.9297ZM28.3108 68.4206C21.5253 68.4206 16.0046 62.8999 16.0046 56.1136C16.0046 49.328 21.5253 43.8074 28.3108 43.8074C35.0972 43.8074 40.6178 49.328 40.6178 56.1136C40.6178 62.8999 35.0972 68.4206 28.3108 68.4206Z" fill="#001632"/>
<path d="M31.2488 48.4727H25.3711V59.0523H35.358V53.1746H31.2488V48.4727Z" fill="#001632"/>
<path d="M14.8574 90.7422H20.7351V99.9989H14.8574V90.7422Z" fill="#001632"/>
<path d="M25.3711 90.7422H31.2488V99.9989H25.3711V90.7422Z" fill="#001632"/>
<path d="M35.8867 90.7422H41.7644V99.9989H35.8867V90.7422Z" fill="#001632"/>
</svg>
