<svg width="180" height="40" viewBox="0 0 180 40" fill="none" xmlns="http://www.w3.org/2000/svg">
<path d="M0 14.6263L16.4971 14.6296L26.5284 14.6313V4.69336L0 14.6263Z" fill="#A8AABB"/>
<path d="M26.5283 4.69268V39.7786L39.0572 0L26.5283 4.69268Z" fill="#A8AABB"/>
<path d="M26.5284 14.6316L16.4971 14.6299L26.5284 39.7796V14.6316Z" fill="#A8AABB"/>
<path d="M0 14.627L19.0695 21.0833L16.4971 14.6302L0 14.627Z" fill="#A8AABB"/>
<path d="M60.7718 30.5445C60.6263 30.6899 60.3839 30.8714 60.045 31.0894C59.7055 31.3076 59.2638 31.5255 58.7187 31.7437C58.1737 31.9614 57.5072 32.1489 56.7203 32.3069C55.9326 32.464 55.0307 32.543 54.0132 32.543C52.0509 32.543 50.3551 32.2279 48.926 31.5984C47.4964 30.9689 46.3155 30.0901 45.3832 28.964C44.4504 27.8375 43.7663 26.5054 43.3303 24.9668C42.8942 23.4286 42.6763 21.7392 42.6763 19.8979C42.6763 18.0573 42.9124 16.3551 43.3848 14.7927C43.8571 13.2301 44.5656 11.8802 45.5103 10.7411C46.4551 9.60283 47.6361 8.71245 49.0533 8.07029C50.4704 7.42887 52.1356 7.10742 54.0495 7.10742C54.9943 7.10742 55.8482 7.19248 56.6113 7.36175C57.3744 7.53138 58.0403 7.7314 58.6099 7.96131C59.1787 8.19184 59.6512 8.4336 60.027 8.68804C60.4022 8.94237 60.6868 9.15483 60.881 9.32385C61.099 9.51814 61.2864 9.74806 61.4442 10.0142C61.6015 10.2811 61.6803 10.5718 61.6803 10.8864C61.6803 11.3713 61.4986 11.8555 61.1353 12.3399C60.772 12.8247 60.3722 13.2728 59.9361 13.6844C59.6454 13.3937 59.3184 13.0974 58.9551 12.7942C58.5917 12.4914 58.1858 12.2253 57.7378 11.9948C57.2893 11.7648 56.7806 11.5712 56.2116 11.4134C55.6422 11.2561 55.0064 11.1771 54.3041 11.1771C53.0686 11.1771 52.0331 11.4258 51.1972 11.922C50.3615 12.4188 49.6892 13.0666 49.1806 13.8661C48.6719 14.6655 48.3085 15.5801 48.0904 16.6095C47.8725 17.6393 47.7635 18.6869 47.7635 19.7526C47.7635 20.8915 47.8725 21.9815 48.0904 23.0227C48.3084 24.0644 48.6837 24.9852 49.217 25.7843C49.7494 26.5837 50.4461 27.2258 51.3062 27.7101C52.1657 28.195 53.2377 28.4369 54.522 28.4369C55.1998 28.4369 55.8239 28.3523 56.3933 28.1827C56.9621 28.0133 57.4652 27.8072 57.9012 27.5646C58.3373 27.323 58.7189 27.0687 59.0458 26.802C59.3729 26.5354 59.6454 26.3056 59.8635 26.1114C60.0088 26.2812 60.1779 26.4874 60.3721 26.7292C60.5673 26.9737 60.7492 27.2284 60.9171 27.4923C61.0864 27.7591 61.2317 28.0254 61.3532 28.2914C61.4741 28.5585 61.5347 28.8003 61.5347 29.018C61.5347 29.3334 61.4741 29.5997 61.3532 29.8176C61.2316 30.0357 61.0379 30.2782 60.7718 30.5445ZM79.4975 27.7576C79.4975 29.683 79.7773 31.0844 80.3382 31.9617C79.8996 32.1319 79.4913 32.254 79.1136 32.3271C78.7355 32.4003 78.3397 32.4367 77.9255 32.4367C77.0483 32.4367 76.3839 32.2661 75.9334 31.925C75.4822 31.5841 75.1959 31.0967 75.0744 30.4627C74.5379 31.0238 73.8313 31.4988 72.9541 31.8888C72.0768 32.278 71.0041 32.4735 69.7372 32.4735C69.0792 32.4735 68.4213 32.3822 67.7633 32.2006C67.1051 32.0176 66.5079 31.7205 65.9719 31.3081C65.4355 30.8947 64.9971 30.342 64.656 29.6496C64.3144 28.9571 64.1441 28.1131 64.1441 27.1173C64.1441 25.8784 64.4424 24.8699 65.0398 24.0929C65.6368 23.3151 66.3861 22.7019 67.2881 22.2523C68.1894 21.8032 69.1644 21.4941 70.2125 21.3236C71.2601 21.1534 72.2231 21.0444 73.1003 20.9952C73.3929 20.9712 73.679 20.9586 73.9594 20.9586H74.7454V20.2933C74.7454 19.3565 74.4952 18.691 73.9959 18.297C73.4961 17.9028 72.6856 17.7052 71.565 17.7052C70.5169 17.7052 69.5847 17.876 68.7685 18.2169C67.9517 18.5585 67.1537 18.948 66.3741 19.3868C66.0325 18.9726 65.7582 18.5158 65.5516 18.0159C65.3444 17.5168 65.2409 17.145 65.2409 16.901C65.2409 16.56 65.4293 16.231 65.8075 15.914C66.1851 15.5976 66.7031 15.3109 67.3612 15.055C68.0193 14.799 68.7743 14.5923 69.6277 14.4335C70.4804 14.2753 71.3823 14.1959 72.3328 14.1959C73.6487 14.1959 74.7637 14.3302 75.6775 14.598C76.5914 14.8665 77.3346 15.2806 77.9075 15.8409C78.4798 16.4019 78.8881 17.1021 79.132 17.9428C79.3753 18.7837 79.4976 19.765 79.4976 20.8855V27.7576H79.4975ZM74.8182 23.5174H74.3066C74.1357 23.5174 73.9649 23.53 73.7948 23.5541C73.1852 23.6031 72.582 23.6761 71.9854 23.7731C71.3879 23.8709 70.8578 24.0415 70.3952 24.2851C69.932 24.5289 69.5544 24.846 69.262 25.2354C68.9695 25.6255 68.8233 26.1254 68.8233 26.7344C68.8233 27.4168 69.018 27.9953 69.4081 28.4706C69.7976 28.9459 70.4556 29.1835 71.3821 29.1835C71.8448 29.1835 72.2836 29.123 72.6982 29.0005C73.1123 28.8792 73.4778 28.7206 73.7948 28.5256C74.1113 28.3306 74.3614 28.1175 74.5442 27.8857C74.7269 27.6544 74.8183 27.4413 74.8183 27.2462V23.5174H74.8182ZM88.5992 16.316C88.9877 15.8533 89.5954 15.3838 90.4212 14.9085C91.2472 14.4333 92.2918 14.1957 93.5553 14.1957C94.4544 14.1957 95.3106 14.3481 96.1248 14.6526C96.938 14.9576 97.6611 15.4512 98.2927 16.1331C98.9245 16.8157 99.4285 17.7175 99.8054 18.8382C100.182 19.9595 100.37 21.3367 100.37 22.9689C100.37 24.8698 100.151 26.436 99.7142 27.6664C99.2766 28.8975 98.7122 29.8723 98.0201 30.591C97.3277 31.3099 96.5559 31.8156 95.706 32.1079C94.8556 32.4003 94.0051 32.5467 93.1551 32.5467C92.4505 32.5467 91.8367 32.4674 91.3149 32.3091C90.7922 32.1504 90.349 31.9743 89.9846 31.779C89.6202 31.5842 89.341 31.3896 89.1468 31.1941C88.9525 30.9993 88.8309 30.8649 88.7824 30.7917V39.7779H83.8107V14.7074C83.933 14.6835 84.0805 14.6589 84.2528 14.6344C84.4003 14.6105 84.5721 14.5921 84.7686 14.5795C84.965 14.5675 85.1983 14.5613 85.4683 14.5613C86.2782 14.5613 86.9659 14.6956 87.5307 14.9634C88.0953 15.2319 88.4519 15.6825 88.5992 16.316ZM95.1793 23.0785C95.1793 22.3475 95.1187 21.6656 94.9976 21.0316C94.8766 20.3982 94.6767 19.8498 94.3979 19.3866C94.1192 18.9239 93.7432 18.5641 93.2709 18.3081C92.7979 18.0523 92.2229 17.9245 91.5447 17.9245C90.527 17.9245 89.8183 18.1198 89.4182 18.5092C89.0185 18.8994 88.8186 19.3261 88.8186 19.7888V27.5386C89.0122 27.7338 89.3571 27.965 89.854 28.2331C90.3511 28.5015 90.9261 28.635 91.5807 28.635C92.8167 28.635 93.7254 28.148 94.307 27.173C94.8886 26.1984 95.1793 24.8333 95.1793 23.0785ZM104.207 29.3663C104.037 28.8792 103.927 28.3671 103.878 27.8309C103.829 27.295 103.805 26.759 103.805 26.2222V9.26064C103.976 9.23672 104.158 9.21219 104.354 9.18754C104.524 9.16362 104.707 9.14544 104.902 9.13275C105.097 9.12079 105.291 9.11456 105.487 9.11456C105.876 9.11456 106.267 9.15117 106.657 9.22415C107.046 9.29737 107.399 9.44357 107.717 9.66275C108.033 9.88205 108.289 10.1809 108.484 10.5584C108.679 10.9365 108.777 11.4301 108.777 12.0388V14.6342H113.895V18.3265H108.777V26.1219C108.777 27.8218 109.471 28.6716 110.86 28.6716C111.202 28.6716 111.524 28.617 111.829 28.5071C112.134 28.3975 112.408 28.2758 112.652 28.1417C112.895 28.0077 113.109 27.8676 113.291 27.7213C113.474 27.575 113.602 27.4655 113.675 27.3924C114.041 27.9289 114.321 28.3932 114.516 28.7851C114.711 29.1774 114.808 29.5456 114.808 29.8896C114.808 30.2097 114.681 30.5236 114.425 30.8309C114.168 31.1382 113.809 31.4216 113.346 31.6797C112.883 31.9378 112.323 32.1468 111.665 32.3068C111.007 32.4668 110.287 32.5469 109.508 32.5469C107.996 32.5469 106.821 32.2542 105.98 31.6695C105.139 31.0844 104.548 30.3166 104.207 29.3663ZM126.486 28.891C127.097 28.891 127.635 28.8242 128.1 28.6899C128.565 28.5564 128.98 28.3917 129.347 28.1967C129.714 28.002 130.032 27.7886 130.301 27.557C130.57 27.3256 130.814 27.1124 131.035 26.9171C131.328 27.2824 131.634 27.752 131.952 28.3243C132.27 28.8975 132.429 29.3663 132.429 29.7317C132.429 30.2681 132.124 30.7555 131.515 31.1941C131.003 31.5842 130.278 31.9193 129.34 32.1992C128.401 32.4793 127.298 32.6196 126.032 32.6196C124.886 32.6196 123.759 32.4735 122.65 32.181C121.541 31.8887 120.554 31.3768 119.689 30.6455C118.824 29.9148 118.123 28.934 117.587 27.7031C117.051 26.4725 116.783 24.9192 116.783 23.0421C116.783 21.5067 117.021 20.1851 117.496 19.0759C117.971 17.9672 118.604 17.0472 119.397 16.3161C120.188 15.585 121.084 15.0492 122.084 14.7075C123.083 14.3667 124.106 14.1958 125.154 14.1958C126.519 14.1958 127.677 14.4095 128.627 14.8355C129.578 15.2622 130.351 15.835 130.948 16.5537C131.545 17.2726 131.978 18.0951 132.246 19.0211C132.514 19.9475 132.648 20.922 132.648 21.9455V22.4572C132.648 22.6527 132.642 22.8593 132.63 23.0786C132.617 23.2982 132.605 23.5117 132.593 23.7183C132.581 23.9259 132.562 24.0902 132.539 24.212H121.755C121.852 25.5524 122.268 26.6672 123.002 27.557C123.735 28.4468 124.896 28.891 126.486 28.891ZM128.152 21.4702C128.152 20.3005 127.925 19.35 127.471 18.6189C127.018 17.8879 126.203 17.5222 125.027 17.5222C124.021 17.5222 123.219 17.8696 122.618 18.5641C122.018 19.2588 121.718 20.2274 121.718 21.4701H128.152V21.4702ZM141.3 16.4083C141.446 16.1909 141.641 15.9492 141.885 15.683C142.128 15.4169 142.427 15.1752 142.78 14.9577C143.133 14.7401 143.523 14.5584 143.95 14.4134C144.376 14.2683 144.833 14.1958 145.321 14.1958C145.613 14.1958 145.924 14.2203 146.253 14.2683C146.582 14.3169 146.886 14.4077 147.167 14.5402C147.447 14.6733 147.673 14.8543 147.843 15.084C148.013 15.3137 148.099 15.5975 148.099 15.9357C148.099 16.4674 147.965 17.0781 147.697 17.7675C147.428 18.4575 147.161 19.0458 146.893 19.533C146.478 19.1919 146.064 18.9299 145.65 18.7471C145.235 18.5644 144.748 18.4728 144.188 18.4728C143.432 18.4728 142.798 18.6929 142.287 19.1326C141.775 19.5724 141.519 20.0979 141.519 20.7089V32.5427H136.548V14.7074C136.669 14.6835 136.815 14.6589 136.986 14.6344C137.132 14.6105 137.303 14.5921 137.498 14.5795C137.693 14.5675 137.924 14.5613 138.192 14.5613C138.972 14.5613 139.648 14.7125 140.221 15.0143C140.794 15.3157 141.154 15.7807 141.3 16.4083ZM155.434 16.4083C155.581 16.1909 155.775 15.9492 156.019 15.683C156.263 15.4169 156.561 15.1752 156.915 14.9577C157.268 14.7401 157.658 14.5584 158.085 14.4134C158.511 14.2683 158.968 14.1958 159.456 14.1958C159.748 14.1958 160.059 14.2203 160.388 14.2683C160.716 14.3169 161.021 14.4077 161.301 14.5402C161.582 14.6733 161.807 14.8543 161.978 15.084C162.148 15.3137 162.234 15.5975 162.234 15.9357C162.234 16.4674 162.099 17.0781 161.832 17.7675C161.563 18.4575 161.295 19.0458 161.027 19.533C160.613 19.1919 160.198 18.9299 159.784 18.7471C159.37 18.5644 158.883 18.4728 158.322 18.4728C157.567 18.4728 156.933 18.6929 156.421 19.1326C155.91 19.5724 155.654 20.0979 155.654 20.7089V32.5427H150.682V14.7074C150.804 14.6835 150.95 14.6589 151.121 14.6344C151.267 14.6105 151.438 14.5921 151.633 14.5795C151.828 14.5675 152.059 14.5613 152.327 14.5613C153.107 14.5613 153.783 14.7125 154.356 15.0143C154.928 15.3157 155.288 15.7807 155.434 16.4083ZM179.159 27.7576C179.159 29.683 179.439 31.0844 180 31.9617C179.561 32.1319 179.153 32.254 178.775 32.3271C178.397 32.4003 178.001 32.4367 177.587 32.4367C176.71 32.4367 176.046 32.2661 175.595 31.925C175.144 31.5841 174.858 31.0967 174.736 30.4627C174.2 31.0238 173.493 31.4988 172.616 31.8888C171.739 32.278 170.666 32.4735 169.399 32.4735C168.741 32.4735 168.083 32.3822 167.425 32.2006C166.767 32.0176 166.169 31.7205 165.634 31.3081C165.097 30.8947 164.659 30.342 164.318 29.6496C163.976 28.9571 163.806 28.1131 163.806 27.1173C163.806 25.8784 164.104 24.8699 164.702 24.0929C165.298 23.3151 166.048 22.7019 166.95 22.2523C167.851 21.8032 168.826 21.4941 169.874 21.3236C170.922 21.1534 171.885 21.0444 172.762 20.9952C173.055 20.9712 173.341 20.9586 173.621 20.9586H174.407V20.2933C174.407 19.3565 174.157 18.691 173.658 18.297C173.158 17.9028 172.347 17.7052 171.227 17.7052C170.179 17.7052 169.247 17.876 168.43 18.2169C167.613 18.5585 166.816 18.948 166.036 19.3868C165.694 18.9726 165.42 18.5158 165.213 18.0159C165.006 17.5168 164.903 17.145 164.903 16.901C164.903 16.56 165.091 16.231 165.469 15.914C165.847 15.5976 166.365 15.3109 167.023 15.055C167.681 14.799 168.436 14.5923 169.289 14.4335C170.142 14.2753 171.044 14.1959 171.994 14.1959C173.31 14.1959 174.425 14.3302 175.339 14.598C176.253 14.8665 176.996 15.2806 177.569 15.8409C178.141 16.4019 178.55 17.1021 178.794 17.9428C179.037 18.7837 179.159 19.765 179.159 20.8855V27.7576ZM174.48 23.5174H173.968C173.797 23.5174 173.627 23.53 173.457 23.5541C172.847 23.6031 172.244 23.6761 171.647 23.7731C171.05 23.8709 170.52 24.0415 170.057 24.2851C169.594 24.5289 169.216 24.846 168.924 25.2354C168.631 25.6255 168.485 26.1254 168.485 26.7344C168.485 27.4168 168.68 27.9953 169.07 28.4706C169.459 28.9459 170.118 29.1835 171.044 29.1835C171.507 29.1835 171.945 29.123 172.36 29.0005C172.774 28.8792 173.14 28.7206 173.457 28.5256C173.773 28.3306 174.023 28.1175 174.206 27.8857C174.389 27.6544 174.48 27.4413 174.48 27.2462V23.5174H174.48Z" fill="#A8AABB"/>
</svg>
