<svg width="60" height="60" viewBox="0 0 60 60" fill="none" xmlns="http://www.w3.org/2000/svg">
<rect width="60" height="60" rx="20" fill="#F2F0FF"/>
<path fill-rule="evenodd" clip-rule="evenodd" d="M42.25 20H17.75C16.25 20 15 21.2422 15 22.7329V37.1429C15 38.6335 16.25 39.8758 17.75 39.8758H42.25C43.75 39.8758 45 38.6335 45 37.1429V22.7329C45 21.2422 43.75 20 42.25 20ZM17.75 22.4845H42.25C42.375 22.4845 42.5 22.6087 42.5 22.7329V25.8385H17.5V22.7329C17.5 22.6087 17.625 22.4845 17.75 22.4845ZM42.25 37.5155H17.75C17.625 37.5155 17.5 37.3913 17.5 37.1429V28.323H42.5V37.2671C42.5 37.3913 42.375 37.5155 42.25 37.5155ZM30.25 29.8125H20.25C19.5 29.8125 19 30.3094 19 31.0547C19 31.8001 19.5 32.297 20.25 32.297H30.25C31 32.297 31.5 31.8001 31.5 31.0547C31.5 30.3094 30.875 29.8125 30.25 29.8125ZM20.125 33.418H26.625C27.375 33.418 27.875 33.9149 27.875 34.6602C27.875 35.4055 27.375 35.9024 26.625 35.9024H20.125C19.375 35.9024 18.875 35.4055 18.875 34.6602C18.875 33.9149 19.375 33.418 20.125 33.418Z" fill="#6961AE"/>
</svg>
