<svg width="100" height="97" viewBox="0 0 100 97" fill="none" xmlns="http://www.w3.org/2000/svg">
<path d="M98.3333 93.3333V75H96.6667V70.4997C96.6667 70 96.4998 69.5003 96.333 68.9998L95 64.6663C94.8332 61.8335 92.5 59.8332 89.6663 60C87.1663 60.1668 85.1668 62.1663 85 64.6663L83.5002 68.9998C83.5002 69.5003 83.3333 70 83.3333 70.4997V75H78.3333V70.3337L80 67.0003V64.5003L78.3333 61.167V33.3333H81.6667V27.5L68.833 18.3333H67.3332L53.9998 6.66667H51.6667V0H48.3333V6.66667H46.0002L32.6668 18.3333H31.167L18.3333 27.5V33.3333H21.6667V61.333L20 64.6663V67.1663L21.6667 70.4997V75H16.6667V70.4997C16.6667 70 16.4998 69.5003 16.333 68.9998L15 64.6663C14.8332 61.8335 12.5 59.8332 9.66634 60C7.16634 60.1668 5.16683 62.1663 5 64.6663L3.50016 68.9998C3.50016 69.5003 3.33333 70 3.33333 70.4997V75H1.66667V93.3333H0V96.6667H100V93.3333H98.3333ZM86.6667 70.4997C86.6667 70.3337 86.6667 70.1668 86.8335 70L88.3333 65.3337V65C88.3333 63.9998 88.9998 63.3333 90 63.3333C91.0002 63.3333 91.6667 63.9998 91.6667 65V65.3337L93.1665 70C93.1665 70.1668 93.3333 70.3337 93.3333 70.4997V75H86.6667V70.4997ZM70 55V51.6667H75V55H70ZM53.9998 21.6667L58.833 30H41.167L46.0002 21.6667H53.9998ZM47.5 18.3333L50 12.5L52.5 18.3333H47.5ZM68.3333 33.3333V36.0002L67.6668 36.6667H63.3333V33.3333H68.3333ZM75 48.3333H70V38.9998L71.6667 37.3332V33.3333H75V48.3333ZM50 41.6667C46.333 41.6667 43.3333 44.6663 43.3333 48.3333H40V40H60V48.3333H56.6667C56.6667 44.6663 53.667 41.6667 50 41.6667ZM53.3333 48.3333H46.6667C46.6667 46.4998 48.1665 45 50 45C51.8335 45 53.3333 46.4998 53.3333 48.3333ZM63.3333 40H66.6667V48.3333H63.3333V40ZM60 33.3333V36.6667H40V33.3333H60ZM36.6667 36.6667H32.3332L31.6667 36.0002V33.3333H36.6667V36.6667ZM30 38.9998V48.3333H25V33.3333H28.3333V37.3332L30 38.9998ZM33.3333 40H36.6667V48.3333H33.3333V40ZM36.6667 51.6667V55H33.3333V51.6667H36.6667ZM40 51.6667H43.3333V55H40V51.6667ZM46.6667 51.6667H53.3333V55H46.6667V51.6667ZM56.6667 51.6667H60V55H56.6667V51.6667ZM63.3333 51.6667H66.6667V55H63.3333V51.6667ZM67.8337 21.6667L78.3333 29.1667V30H62.6668L57.8337 21.6667H67.8337ZM62.1663 18.3333H56.0002L52.5 10H52.6668L62.1663 18.3333ZM47.3332 10H47.5L43.9998 18.3333H37.8337L47.3332 10ZM21.6667 29.1667L32.1663 21.6667H42.1663L37.3332 30H21.6667V29.1667ZM25 51.6667H30V55H25V51.6667ZM23.3333 66.333V65.4997L25 62.1663V58.3333H75V62.0003L76.6667 65.3337V66.167L75 69.5003V75H25V69.6663L23.3333 66.333ZM6.66667 70.4997C6.66667 70.3337 6.66667 70.1668 6.8335 70L8.33333 65.3337V65C8.33333 63.9998 8.99984 63.3333 10 63.3333C11.0002 63.3333 11.6667 63.9998 11.6667 65V65.3337L13.1665 70C13.1665 70.1668 13.3333 70.3337 13.3333 70.4997V75H6.66667V70.4997ZM5 78.3333H95V93.3333H5V78.3333Z" fill="#001632"/>
<path d="M55 66.6641C55 63.8304 52.8337 61.6641 50 61.6641C47.1663 61.6641 45 63.8304 45 66.6641V71.6641H55V66.6641ZM51.6667 68.3307H48.3333V66.6641C48.3333 65.6639 48.9998 64.9974 50 64.9974C51.0002 64.9974 51.6667 65.6639 51.6667 66.6641V68.3307Z" fill="#001632"/>
<path d="M58.333 61.6641H71.6663V64.9974H58.333V61.6641Z" fill="#001632"/>
<path d="M58.333 68.332H71.6663V71.6654H58.333V68.332Z" fill="#001632"/>
<path d="M28.333 61.6641H41.6663V64.9974H28.333V61.6641Z" fill="#001632"/>
<path d="M28.333 68.332H41.6663V71.6654H28.333V68.332Z" fill="#001632"/>
<path d="M8.33301 81.6641H11.6663V89.9974H8.33301V81.6641Z" fill="#001632"/>
<path d="M18.333 81.6641H21.6663V89.9974H18.333V81.6641Z" fill="#001632"/>
<path d="M28.333 81.6641H31.6663V89.9974H28.333V81.6641Z" fill="#001632"/>
<path d="M38.333 81.6641H41.6663V89.9974H38.333V81.6641Z" fill="#001632"/>
<path d="M48.333 81.6641H51.6663V89.9974H48.333V81.6641Z" fill="#001632"/>
<path d="M58.333 81.6641H61.6663V89.9974H58.333V81.6641Z" fill="#001632"/>
<path d="M68.333 81.6641H71.6663V89.9974H68.333V81.6641Z" fill="#001632"/>
<path d="M78.333 81.6641H81.6663V89.9974H78.333V81.6641Z" fill="#001632"/>
<path d="M88.333 81.6641H91.6663V89.9974H88.333V81.6641Z" fill="#001632"/>
</svg>
