<svg width="100" height="100" viewBox="0 0 100 100" fill="none" xmlns="http://www.w3.org/2000/svg">
<path d="M95.8333 91.6667H73.2981C77.1393 83.9396 79.1667 75.4293 79.1667 66.6667C79.1667 57.725 77.065 49.2249 73.3124 41.6667H79.1667C81.4667 41.6667 83.3333 39.8 83.3333 37.5C83.3333 35.2 81.4667 33.3333 79.1667 33.3333H68.2292C59.9955 22.1436 47.6878 14.0879 33.3333 11.4166V4.16667C33.3333 1.86666 31.4667 0 29.1667 0C26.8667 0 25 1.86666 25 4.16667V33.3333H20.8333C18.5333 33.3333 16.6667 35.2 16.6667 37.5C16.6667 39.8 18.5333 41.6667 20.8333 41.6667H25V91.6667H4.16667C1.86666 91.6667 0 93.5333 0 95.8333C0 98.1333 1.86666 100 4.16667 100H95.8333C98.1333 100 100 98.1333 100 95.8333C100 93.5333 98.1333 91.6667 95.8333 91.6667ZM33.3333 19.9127C42.6829 21.9706 50.9125 26.7588 57.2835 33.3333H33.3333V19.9127ZM33.3333 75H50C52.3 75 54.1667 73.1333 54.1667 70.8333C54.1667 68.5333 52.3 66.6667 50 66.6667H33.3333V58.3333H45.8333C48.1333 58.3333 50 56.4667 50 54.1667C50 51.8667 48.1333 50 45.8333 50H33.3333V41.6667H63.8C68.2709 48.9746 70.8333 57.55 70.8333 66.6667C70.8333 75.5646 68.3818 84.1522 63.7746 91.6667H33.3333V75Z" fill="#001632"/>
</svg>
