<svg width="178" height="56" viewBox="0 0 178 56" fill="none" xmlns="http://www.w3.org/2000/svg">
<path d="M172.438 55.625H5.5625C2.50312 55.625 0 53.1219 0 50.0625V5.5625C0 2.50312 2.50312 0 5.5625 0H172.438C175.497 0 178 2.50312 178 5.5625V50.0625C178 53.1219 175.497 55.625 172.438 55.625Z" fill="#0E2C65"/>
<path fill-rule="evenodd" clip-rule="evenodd" d="M13.6279 27.2562V12.6547C13.6279 11.8203 14.3232 11.125 15.0186 11.125C15.7139 11.125 15.992 11.2641 16.4092 11.5422L43.2482 26.2828C43.8045 26.5609 44.0826 26.9781 44.0826 27.3953C44.0826 27.8125 43.8045 28.2297 43.2482 28.5078L16.4092 43.2484C16.1311 43.3875 15.7139 43.6656 15.0186 43.6656C14.3232 43.6656 13.6279 42.9703 13.6279 42.1359V27.2562Z" fill="url(#paint0_linear)"/>
<path fill-rule="evenodd" clip-rule="evenodd" d="M31.0105 27.3953L14.7402 11.125C14.8793 11.125 14.8793 11.125 15.0184 11.125C15.7137 11.125 15.9918 11.2641 16.409 11.5422L36.1559 22.3891L31.0105 27.3953Z" fill="url(#paint1_linear)"/>
<path fill-rule="evenodd" clip-rule="evenodd" d="M36.017 32.2624L31.0107 27.2561L36.1561 22.1108L43.2482 26.0046C43.8045 26.2827 44.0826 26.6999 44.0826 27.1171C44.0826 27.5343 43.8045 27.9515 43.2482 28.2296L36.017 32.2624Z" fill="url(#paint2_linear)"/>
<path fill-rule="evenodd" clip-rule="evenodd" d="M14.8799 43.3876L31.0111 27.2563L36.0174 32.2626L16.4096 42.9704C15.9924 43.2485 15.7143 43.3876 14.8799 43.3876C15.0189 43.3876 15.0189 43.3876 14.8799 43.3876Z" fill="url(#paint3_linear)"/>
<path fill-rule="evenodd" clip-rule="evenodd" d="M98.8741 47.1422C98.1788 46.5859 97.6225 45.6125 97.3444 45.0563L99.5694 44.0828C99.7085 44.3609 99.9866 44.7781 100.265 45.1953C100.821 45.7516 101.655 46.3078 102.49 46.3078C103.324 46.3078 104.298 45.8906 104.854 45.1953C105.271 44.5 105.549 43.8047 105.549 42.8312V41.9969C103.88 44.0828 100.404 43.8047 98.4569 41.5797C96.371 39.3547 96.371 35.6 98.4569 33.375C100.543 31.2891 103.602 31.0109 105.41 32.9578V31.9844H107.774V42.4141C107.774 45.0562 106.801 46.5859 105.549 47.5594C104.715 48.2547 103.463 48.5328 102.351 48.5328C101.099 48.3938 99.8475 47.9766 98.8741 47.1422ZM157.141 47.6984L159.505 42.1359L155.333 32.5406H157.698L160.618 39.3547L163.538 32.5406H165.902L159.505 47.6984H157.141ZM145.877 42.4141C145.182 41.7188 144.904 40.7453 144.904 39.7719C144.904 38.9375 145.182 38.1031 145.738 37.5469C146.712 36.5734 148.102 36.1562 149.632 36.1562C150.605 36.1562 151.44 36.2953 152.135 36.7125C152.135 35.0438 150.744 34.3484 149.632 34.3484C148.658 34.3484 147.685 34.9047 147.268 35.8781L145.182 35.0438C145.599 34.0703 146.712 32.2625 149.493 32.2625C150.883 32.2625 152.274 32.6797 153.108 33.6531C153.943 34.6266 154.221 35.7391 154.221 37.2687V43.1094H151.857V42.1359C151.579 42.5531 151.023 42.8312 150.605 43.1094C150.049 43.3875 149.354 43.5266 148.658 43.5266C147.824 43.3875 146.573 43.1094 145.877 42.4141ZM71.7569 37.4078C71.7569 34.6266 73.8428 31.5672 77.5975 31.5672C81.2132 31.5672 83.4382 34.6266 83.4382 37.4078C83.4382 40.1891 81.3522 43.2484 77.5975 43.2484C73.8428 43.2484 71.7569 40.1891 71.7569 37.4078ZM84.2725 37.4078C84.2725 34.6266 86.3585 31.5672 90.1132 31.5672C93.7288 31.5672 95.9538 34.6266 95.9538 37.4078C95.9538 40.1891 93.8679 43.2484 90.1132 43.2484C86.4975 43.2484 84.2725 40.1891 84.2725 37.4078ZM56.0428 40.4672C52.5663 36.9906 52.7053 31.2891 56.1819 27.6734C57.9897 25.8656 60.2147 25.0312 62.5788 25.0312C64.8038 25.0312 67.0288 25.8656 68.6975 27.5344L67.0288 29.3422C64.5257 26.8391 60.4928 26.9781 58.1288 29.4813C55.6257 32.1234 55.6257 36.1563 58.1288 38.7984C60.6319 41.4406 64.8038 41.5797 67.3069 38.9375C68.1413 38.1031 68.4194 36.9906 68.5585 35.8781H62.7179V33.375H70.9225C71.0616 33.9312 71.0616 34.6266 71.0616 35.3219C71.0616 37.4078 70.2272 39.4938 68.8366 40.8844C67.3069 42.4141 65.0819 43.2484 62.8569 43.2484C60.3538 43.1094 57.8507 42.275 56.0428 40.4672ZM114.866 41.4406C112.78 39.2156 112.78 35.4609 114.866 33.0969C116.952 30.8719 120.429 30.8719 122.376 33.0969C123.071 33.7922 123.488 34.7656 123.905 35.7391L116.257 38.9375C116.674 39.9109 117.648 40.7453 119.038 40.7453C120.29 40.7453 121.124 40.3281 121.958 39.0766L124.044 40.4672C123.766 40.7453 123.488 41.0234 123.349 41.3016C120.985 43.6656 116.952 43.6656 114.866 41.4406ZM129.329 43.1094V27.6734H134.335C137.255 27.6734 139.619 29.7594 139.619 32.2625C139.619 34.7656 137.533 36.8516 134.891 36.8516H131.832V42.9703H129.329V43.1094ZM141.01 43.1094V27.6734H143.374V43.1094H141.01ZM109.582 42.8312V25.5875H112.085V42.8312H109.582ZM151.996 38.5203C151.44 38.1031 150.605 37.9641 149.771 37.9641C148.102 37.9641 147.129 38.7984 147.129 39.7719C147.129 40.7453 148.102 41.3016 149.076 41.3016C150.466 41.3016 151.996 40.1891 151.996 38.5203ZM80.796 37.4078C80.796 35.7391 79.6835 33.9313 77.5975 33.9313C75.5116 33.9313 74.3991 35.7391 74.3991 37.4078C74.3991 39.0766 75.5116 40.8844 77.5975 40.8844C79.5444 40.8844 80.796 39.0766 80.796 37.4078ZM93.3116 37.4078C93.3116 35.7391 92.1991 33.9313 90.1132 33.9313C88.0272 33.9313 86.9147 35.7391 86.9147 37.4078C86.9147 39.0766 88.0272 40.8844 90.1132 40.8844C92.1991 40.8844 93.3116 39.0766 93.3116 37.4078ZM105.688 38.3812C105.688 38.2422 105.688 38.1031 105.827 37.9641C105.827 37.825 105.827 37.5469 105.827 37.4078C105.827 37.2688 105.827 36.9906 105.827 36.8516V36.7125C105.827 36.5734 105.688 36.2953 105.688 36.1562C105.271 34.7656 104.019 33.7922 102.768 33.7922C101.099 33.7922 99.7085 35.4609 99.7085 37.2687C99.7085 39.2156 101.099 40.7453 102.907 40.7453C104.019 40.8844 105.132 39.9109 105.688 38.3812ZM115.84 37.1297L120.985 34.9047C120.429 33.9312 119.594 33.6531 118.899 33.6531C116.813 33.7922 115.562 36.0172 115.84 37.1297ZM137.116 32.4016C137.116 31.0109 136.004 30.0375 134.474 30.0375H131.693V34.9047H134.613C136.004 34.9047 137.116 33.7922 137.116 32.4016Z" fill="white"/>
<path fill-rule="evenodd" clip-rule="evenodd" d="M158.949 44.9174H158.81V44.7783H158.949H158.81V44.9174H158.949Z" fill="white"/>
<path fill-rule="evenodd" clip-rule="evenodd" d="M159.226 44.9174C159.226 44.7783 159.226 44.7783 159.226 44.9174C159.087 44.7783 159.087 44.7783 159.226 44.9174C159.087 44.9174 159.087 44.9174 159.226 44.9174ZM159.226 44.7783C159.226 44.9174 159.226 44.9174 159.226 44.7783C159.226 44.9174 159.087 44.9174 159.226 44.7783C159.087 44.7783 159.226 44.7783 159.226 44.7783Z" fill="white"/>
<path fill-rule="evenodd" clip-rule="evenodd" d="M159.366 44.7783H159.227H159.366V44.9174V44.7783Z" fill="white"/>
<path d="M54.0957 14.0455C54.0957 11.5424 55.9035 10.0127 58.1285 10.0127C59.6582 10.0127 60.6317 10.708 61.327 11.6814L60.2145 12.3768C59.7973 11.8205 59.102 11.4033 58.1285 11.4033C56.5988 11.4033 55.4863 12.5158 55.4863 14.1846C55.4863 15.8533 56.5988 16.9658 58.1285 16.9658C58.9629 16.9658 59.6582 16.5486 59.9363 16.2705V15.0189H57.7113V13.7674H61.466V16.6877C60.7707 17.5221 59.6582 18.0783 58.2676 18.0783C55.9035 18.0783 54.0957 16.4096 54.0957 14.0455Z" fill="white"/>
<path d="M63.1348 17.9389V10.1514H68.4191V11.4029H64.3863V13.3498H68.2801V14.6014H64.3863V16.8264H68.4191V18.0779L63.1348 17.9389Z" fill="white"/>
<path d="M72.3123 17.9389V11.4029H69.9482V10.1514H76.067V11.4029H73.7029V17.9389H72.3123Z" fill="white"/>
<path d="M80.7949 17.9389V10.1514H82.1855V17.9389H80.7949Z" fill="white"/>
<path d="M85.9402 17.9389V11.4029H83.5762V10.1514H89.6949V11.4029H87.3309V17.9389H85.9402Z" fill="white"/>
<path d="M94.1455 14.0455C94.1455 11.6814 95.8143 10.0127 98.1783 10.0127C100.542 10.0127 102.211 11.6814 102.211 14.0455C102.211 16.4096 100.542 18.0783 98.1783 18.0783C95.8143 18.0783 94.1455 16.2705 94.1455 14.0455ZM100.681 14.0455C100.681 12.3768 99.708 11.2643 98.0393 11.2643C96.5096 11.2643 95.3971 12.5158 95.3971 14.0455C95.3971 15.7143 96.3705 16.8268 98.0393 16.8268C99.708 16.8268 100.681 15.5752 100.681 14.0455Z" fill="white"/>
<path d="M109.164 17.9389L105.131 12.3764V17.9389H103.74V10.1514H105.131L109.164 15.5748V10.1514H110.554V17.9389H109.164Z" fill="white"/>
<defs>
<linearGradient id="paint0_linear" x1="22.6217" y1="9.14141" x2="30.4067" y2="41.1131" gradientUnits="userSpaceOnUse">
<stop stop-color="#006884"/>
<stop offset="1" stop-color="#8AD1D0"/>
</linearGradient>
<linearGradient id="paint1_linear" x1="13.1281" y1="13.689" x2="34.3435" y2="25.1582" gradientUnits="userSpaceOnUse">
<stop stop-color="#24BBB6"/>
<stop offset="1" stop-color="#DBE692"/>
</linearGradient>
<linearGradient id="paint2_linear" x1="37.5389" y1="32.8466" x2="37.5389" y2="21.7934" gradientUnits="userSpaceOnUse">
<stop stop-color="#FCC072"/>
<stop offset="1" stop-color="#F58A5B"/>
</linearGradient>
<linearGradient id="paint3_linear" x1="17.2366" y1="46.2649" x2="33.996" y2="29.2087" gradientUnits="userSpaceOnUse">
<stop stop-color="#712B8F"/>
<stop offset="1" stop-color="#EA1D27"/>
</linearGradient>
</defs>
</svg>
