<svg id="Layer_1" data-name="Layer 1" xmlns="http://www.w3.org/2000/svg" xmlns:xlink="http://www.w3.org/1999/xlink" viewBox="0 0 38.52134 42.90984"><defs><style>.cls-1{fill:url(#linear-gradient);}.cls-2{fill:url(#linear-gradient-2);}.cls-3{fill:url(#linear-gradient-3);}.cls-4{fill:url(#linear-gradient-4);}.cls-5{opacity:0.2;}.cls-5,.cls-6,.cls-7{isolation:isolate;}.cls-6{opacity:0.12;}.cls-7{fill:#fff;opacity:0.25;}</style><linearGradient id="linear-gradient" x1="19.73102" y1="42.26458" x2="-8.26679" y2="14.26677" gradientTransform="matrix(1, 0, 0, -1, 0, 44.88251)" gradientUnits="userSpaceOnUse"><stop offset="0" stop-color="#00a0ff"/><stop offset="0.00657" stop-color="#00a1ff"/><stop offset="0.2601" stop-color="#00beff"/><stop offset="0.5122" stop-color="#00d2ff"/><stop offset="0.7604" stop-color="#00dfff"/><stop offset="1" stop-color="#00e3ff"/></linearGradient><linearGradient id="linear-gradient-2" x1="39.80821" y1="23.42676" x2="-0.55908" y2="23.42676" gradientTransform="matrix(1, 0, 0, -1, 0, 44.88251)" gradientUnits="userSpaceOnUse"><stop offset="0" stop-color="#ffe000"/><stop offset="0.4087" stop-color="#ffbd00"/><stop offset="0.7754" stop-color="orange"/><stop offset="1" stop-color="#ff9c00"/></linearGradient><linearGradient id="linear-gradient-3" x1="24.78128" y1="19.59863" x2="-13.18599" y2="-18.36864" gradientTransform="matrix(1, 0, 0, -1, 0, 44.88251)" gradientUnits="userSpaceOnUse"><stop offset="0" stop-color="#ff3a44"/><stop offset="1" stop-color="#c31162"/></linearGradient><linearGradient id="linear-gradient-4" x1="-4.46311" y1="56.50094" x2="12.49086" y2="39.54696" gradientTransform="matrix(1, 0, 0, -1, 0, 44.88251)" gradientUnits="userSpaceOnUse"><stop offset="0" stop-color="#32a071"/><stop offset="0.0685" stop-color="#2da771"/><stop offset="0.4762" stop-color="#15cf74"/><stop offset="0.8009" stop-color="#06e775"/><stop offset="1" stop-color="#00f076"/></linearGradient></defs><title>Playstore_Logo</title><path class="cls-1" d="M.77208.66318A3.34062,3.34062,0,0,0,0,3.00695V39.90289a3.33918,3.33918,0,0,0,.77208,2.34377l.12345.12028L21.5639,21.69874V21.2111L.89553.54206Z"/><path class="cls-2" d="M28.45291,28.59109l-6.889-6.89235V21.2111l6.89068-6.89068.15532.08859,8.16258,4.638c2.33159,1.32462,2.33159,3.492,0,4.81751l-8.16258,4.638Z"/><path class="cls-3" d="M28.6099,28.50167,21.5639,21.455.77208,42.24666c.76875.81362,2.03731.91439,3.46686.10243l24.371-13.84742"/><path class="cls-4" d="M28.6099,14.40817,4.23894.56075C2.80939-.2512,1.54083-.15044.77208.66318L21.5639,21.455Z"/><path class="cls-5" d="M28.45458,28.34652,4.23894,42.10536c-1.35464.76957-2.56565.71836-3.34257.01785h0l-.12429.12428h0l.12345.12029.00084-.00084c.77692.70051,1.98793.75257,3.34257-.01785l24.371-13.84742Z"/><path class="cls-6" d="M.77208,42.00376A3.34122,3.34122,0,0,1,0,39.66v.24374a3.3409,3.3409,0,0,0,.77208,2.34377l.12429-.12428Z"/><path class="cls-6" d="M36.77248,23.61994l-8.3179,4.72658.15532.15515,8.16258-4.638a2.92751,2.92751,0,0,0,1.74886-2.408h0A3.10683,3.10683,0,0,1,36.77248,23.61994Z"/><path class="cls-7" d="M4.23894.80532,36.77248,19.28991A3.10514,3.10514,0,0,1,38.52134,21.455h0a2.92558,2.92558,0,0,0-1.74886-2.40883L4.23894.56158C1.90735-.7632,0,.3372,0,3.00779v.24373C0,.5811,1.90735-.5193,4.23894.80532Z"/></svg>