<svg width="60" height="60" viewBox="0 0 60 60" fill="none" xmlns="http://www.w3.org/2000/svg">
<rect width="60" height="60" rx="20" fill="#E9F3FE"/>
<path d="M24.303 43.9871C24.0606 43.9871 23.8182 43.8659 23.5758 43.7447C23.0909 43.381 22.8485 42.775 22.9697 42.1689L26.2424 31.9871L22.4848 29.078C22.2424 28.8356 22 28.3507 22 27.9871C22 27.6234 22.1212 27.2598 22.4848 26.8962L34.3636 16.2295C34.7273 15.9871 35.3333 15.8659 35.8182 16.2295C36.303 16.5931 36.5455 17.1992 36.4242 17.684L34.1212 26.6537L37.3939 28.7144C37.7576 28.9568 38 29.3204 38 29.684C38 30.0477 37.8788 30.5325 37.6364 30.775L25.2727 43.5022C25.0303 43.8659 24.6667 43.9871 24.303 43.9871ZM25.3939 27.8659L28.5455 30.4113C29.0303 30.775 29.1515 31.381 29.0303 31.8659L27.2121 37.5628L34.4848 30.1689L31.8182 28.4719C31.3333 28.1083 31.2121 27.5022 31.3333 27.0174L32.7879 21.3204L25.3939 27.8659Z" fill="#244FEB"/>
</svg>
