<svg width="100" height="101" viewBox="0 0 100 101" fill="none" xmlns="http://www.w3.org/2000/svg">
<path d="M96.2829 40.6316C91.5764 33.1586 83.4709 27.1847 75.2243 23.705L76.004 20.4449L81.2645 21.6321C82.0137 21.8007 82.7987 21.6687 83.4518 21.2643L98.603 11.8763C99.2676 11.4651 99.7391 10.8052 99.9145 10.0438C100.09 9.28235 99.9542 8.48202 99.5361 7.82208C96.4577 2.94994 90.5761 0.362815 82.9559 0.536003C75.8873 0.697746 68.1083 3.24215 61.0519 7.70001C56.385 10.6495 52.6969 13.6998 49.868 16.9529C46.9291 13.6006 43.2067 10.4535 38.8503 7.70001C31.7939 3.24139 24.0325 0.696983 16.9967 0.53524C9.41306 0.365104 3.54376 2.94918 0.464539 7.82208C0.0479737 8.48126 -0.0885926 9.27929 0.0853577 10.0392C0.259308 10.7991 0.729279 11.459 1.39075 11.8718L16.4428 21.2597C17.0974 21.6679 17.8863 21.8014 18.6378 21.6313L23.8982 20.4449L24.6703 23.6752C23.2322 24.255 21.9077 24.8562 20.7183 25.475C13.3117 29.324 7.22114 34.7165 3.56894 40.6583C-0.369355 47.0662 -1.07431 53.4116 1.58377 58.5255C2.33145 59.966 4.10376 60.5168 5.53275 59.7745L15.9293 54.3713C16.6183 54.0135 17.1371 53.3955 17.3713 52.6547L18.9857 47.5484L24.092 49.1627C24.8267 49.3947 25.624 49.3283 26.3107 48.9766L37.8379 43.0699C38.5238 43.9481 39.3325 44.7262 40.2381 45.3793C39.9108 48.866 35.7589 93.1325 35.617 94.6469H26.5685C24.9503 94.6469 23.6388 95.9584 23.6388 97.5759C23.6388 99.1941 24.9503 100.505 26.5685 100.505H73.4329C75.0503 100.505 76.3618 99.1941 76.3618 97.5759C76.3618 95.9584 75.0503 94.6469 73.4329 94.6469H64.3791C64.2631 93.4362 60.5087 54.1882 60.4263 53.3284C64.318 52.7814 67.6017 50.3155 69.2871 46.9205L73.2284 48.969C73.9029 49.3191 74.6872 49.3932 75.4158 49.1765L81.0302 47.5026L82.6591 52.6547C82.8926 53.3955 83.4114 54.0135 84.1011 54.3713L94.4977 59.7745C95.9289 60.5183 97.6997 59.9637 98.4474 58.5263C101.102 53.4161 100.334 47.0616 96.2829 40.6316ZM83.0894 6.39233C87.0598 6.30078 90.2969 7.12704 92.5155 8.75668L81.385 15.6537L74.472 14.0942C72.9072 13.741 71.3516 14.7114 70.9785 16.2701L69.6716 21.7396C64.4386 20.2382 59.2819 19.7468 54.6966 20.3358C60.1547 14.3109 71.6232 6.65402 83.0894 6.39233ZM41.2139 35.8708C41.2139 32.6413 43.8415 30.013 47.0718 30.013C50.3021 30.013 52.9296 32.6413 52.9296 35.8708C52.9296 39.1011 50.3021 41.7294 47.0718 41.7294C43.8415 41.7294 41.2139 39.1011 41.2139 35.8708ZM18.5226 15.6521L7.47443 8.76202C9.6862 7.12933 12.9134 6.30078 16.8616 6.39233C28.9428 6.66928 42.1615 15.3164 48.0483 24.1986C47.7256 24.1719 47.4006 24.1551 47.0718 24.1551C43.7156 24.1551 40.6875 25.5749 38.5497 27.8432L30.4694 22.7368L28.9237 16.2701C28.5506 14.7107 26.9943 13.741 25.4302 14.0934L18.5226 15.6521ZM24.71 43.2141L17.958 41.0802C16.4161 40.5926 14.7704 41.4479 14.2821 42.9898L12.1513 49.7327L5.92261 52.9698C5.12 45.9584 12.3366 36.4331 23.4199 30.6729C24.8885 29.91 26.6143 29.1669 28.556 28.4573L35.7169 32.9823C35.482 33.907 35.3561 34.8744 35.3561 35.8708C35.3561 36.4888 35.4049 37.0946 35.4972 37.6866L24.71 43.2141ZM47.0718 47.5873C47.5837 47.5873 48.0873 47.5507 48.5824 47.4866C49.9053 49.8257 51.9981 51.6339 54.4738 52.6181L55.1132 59.3037H44.8158L45.9197 47.5301C46.2989 47.5674 46.6827 47.5873 47.0718 47.5873ZM44.2665 65.1616H55.6739L56.7947 76.8773H43.1678L44.2665 65.1616ZM41.5008 94.6469L42.6185 82.7359H57.3547L58.4938 94.6469H41.5008ZM58.7875 47.5873C56.9046 47.5873 55.1841 46.6801 54.1015 45.2374C56.945 43.0981 58.7875 39.6962 58.7875 35.8708C62.0178 35.8708 64.6461 38.4991 64.6461 41.7294C64.6461 44.9597 62.0178 47.5873 58.7875 47.5873ZM94.0918 52.9614L87.8792 49.7327L85.7483 42.9898C85.2661 41.4654 83.6502 40.6087 82.1182 41.0657L74.8779 43.224L70.4742 40.9352C70.0637 34.8439 64.981 30.013 58.7875 30.013C58.2763 30.013 57.7697 30.048 57.2685 30.1129C57.0922 29.8016 56.903 29.4995 56.6993 29.2065C56.4399 28.1773 56.1027 27.1458 55.6869 26.1181C73.5183 24.0506 95.3415 40.9131 94.0918 52.9614Z" fill="#001632"/>
</svg>
