<svg width="180" height="43" viewBox="0 0 180 43" fill="none" xmlns="http://www.w3.org/2000/svg">
<path d="M21.0696 42.1392C32.706 42.1392 42.1392 32.706 42.1392 21.0696C42.1392 9.43318 32.706 0 21.0696 0C9.43318 0 0 9.43318 0 21.0696C0 32.706 9.43318 42.1392 21.0696 42.1392Z" fill="#A8AABB"/>
<path d="M23.879 10.5342V10.5342L13.6953 10.5342V31.6038H17.9092V25.2829H23.879V25.2829C25.8348 25.2829 27.7105 24.506 29.0934 23.123C30.4764 21.74 31.2533 19.8643 31.2533 17.9085C31.2533 15.9527 30.4764 14.077 29.0934 12.6941C27.7105 11.3111 25.8348 10.5342 23.879 10.5342ZM23.879 21.0689V21.069H17.9092V14.7481H23.879V14.7481C24.7167 14.7487 25.52 15.082 26.1122 15.6746C26.7044 16.2672 27.037 17.0707 27.037 17.9085C27.037 18.7463 26.7044 19.5498 26.1122 20.1424C25.52 20.735 24.7167 21.0683 23.879 21.0689Z" fill="white"/>
<path d="M56.1855 28.0933V14.0469H62.6386C65.6385 14.0469 67.2724 16.0741 67.2724 18.4946C67.2724 20.8941 65.6183 22.9213 62.6386 22.9213H59.1232V28.0933H56.1855ZM64.2741 18.4946C64.2741 17.3357 63.3831 16.6325 62.2259 16.6325H59.1232V20.3357H62.2259C63.3831 20.3357 64.2741 19.6324 64.2741 18.4946Z" fill="#A8AABB"/>
<path d="M69.0596 28.0926V17.8521H71.6856V19.1971C72.4099 18.328 73.6311 17.6045 74.8725 17.6045V20.169C74.634 20.1225 74.3912 20.1019 74.1482 20.1075C73.2791 20.1075 72.1202 20.6036 71.6856 21.2454V28.0926H69.0596Z" fill="#A8AABB"/>
<path d="M75.8682 22.838C75.8682 20.004 77.8541 17.6045 81.1438 17.6045C84.4537 17.6045 86.4396 20.004 86.4396 22.838C86.4396 25.672 84.4537 28.0926 81.1438 28.0926C77.8541 28.0926 75.8682 25.672 75.8682 22.838ZM83.7092 22.838C83.7092 21.2866 82.7979 19.9416 81.1438 19.9416C79.5082 19.9416 78.5986 21.2866 78.5986 22.838C78.5986 24.4104 79.5082 25.7546 81.1438 25.7546C82.7979 25.7546 83.7092 24.4104 83.7092 22.838Z" fill="#A8AABB"/>
<path d="M95.2794 28.0933V26.5621C94.9196 27.039 94.4538 27.4256 93.9188 27.6914C93.3838 27.9571 92.7943 28.0947 92.1969 28.0933C89.6939 28.0933 87.7703 26.1899 87.7703 22.8387C87.7703 19.5912 89.6535 17.6052 92.1969 17.6052C92.795 17.599 93.3861 17.7344 93.9218 18.0004C94.4576 18.2664 94.9228 18.6553 95.2794 19.1355V14.0469H97.9273V28.0933H95.2794ZM95.2794 24.6175V21.0802C94.8448 20.4182 93.8931 19.9424 93.024 19.9424C91.5147 19.9424 90.4805 21.1215 90.4805 22.8387C90.4805 24.5762 91.5147 25.7553 93.024 25.7553C93.8931 25.7553 94.8448 25.2795 95.2794 24.6175Z" fill="#A8AABB"/>
<path d="M107.284 28.093V26.5829C106.835 27.0647 106.291 27.4477 105.685 27.7077C105.08 27.9676 104.428 28.0989 103.769 28.093C101.576 28.093 100.542 26.8928 100.542 24.9482V17.8525H103.168V23.9139C103.168 25.3002 103.892 25.755 105.009 25.755C105.449 25.7479 105.882 25.642 106.276 25.4451C106.67 25.2481 107.014 24.9652 107.284 24.6172V17.8525H109.912V28.093H107.284Z" fill="#A8AABB"/>
<path d="M111.885 22.838C111.885 19.7766 114.118 17.6045 117.18 17.6045C119.229 17.6045 120.47 18.4939 121.132 19.4043L119.414 21.0171C119.184 20.6723 118.869 20.3923 118.5 20.204C118.131 20.0157 117.719 19.9254 117.305 19.9416C115.712 19.9416 114.595 21.1005 114.595 22.838C114.595 24.5755 115.712 25.7546 117.305 25.7546C117.72 25.7625 118.131 25.6663 118.499 25.4748C118.867 25.2832 119.182 25.0024 119.414 24.658L121.132 26.2717C120.47 27.1821 119.229 28.0926 117.18 28.0926C114.118 28.0926 111.885 25.9205 111.885 22.838Z" fill="#A8AABB"/>
<path d="M123.391 25.3415V20.1492H121.737V17.8525H123.391V15.1221H126.018V17.8525H128.045V20.1492H126.018V24.6382C126.018 25.2791 126.349 25.755 126.928 25.755C127.32 25.755 127.694 25.6101 127.838 25.4451L128.397 27.4512C128.004 27.8032 127.3 28.093 126.204 28.093C124.363 28.093 123.391 27.1413 123.391 25.3415Z" fill="#A8AABB"/>
<path d="M144.873 28.0933V22.0319H138.356V28.0933H135.42V14.0469H138.356V19.4665H144.873V14.0469H147.831V28.0933H144.873Z" fill="#A8AABB"/>
<path d="M157.232 28.093V26.5829C156.782 27.0647 156.238 27.4477 155.633 27.7077C155.027 27.9676 154.375 28.0989 153.716 28.093C151.523 28.093 150.489 26.8928 150.489 24.9482V17.8525H153.115V23.9139C153.115 25.3002 153.839 25.755 154.956 25.755C155.396 25.7479 155.829 25.642 156.223 25.4451C156.617 25.2481 156.962 24.9652 157.232 24.6172V17.8525H159.859V28.093H157.232Z" fill="#A8AABB"/>
<path d="M169.215 28.0927V21.8039C169.215 20.4176 168.492 19.9418 167.374 19.9418C166.931 19.9503 166.497 20.059 166.103 20.2597C165.708 20.4604 165.365 20.748 165.098 21.1007V28.0927H162.472V17.8522H165.098V19.1349C165.54 18.6483 166.081 18.2605 166.683 17.9968C167.286 17.7331 167.937 17.5995 168.595 17.6046C170.808 17.6046 171.863 18.8452 171.863 20.7899V28.0927H169.215Z" fill="#A8AABB"/>
<path d="M174.994 25.3415V20.1492H173.34V17.8525H174.994V15.1221H177.622V17.8525H179.648V20.1492H177.622V24.6382C177.622 25.2791 177.952 25.755 178.531 25.755C178.924 25.755 179.298 25.6101 179.443 25.4451L180 27.4512C179.608 27.8032 178.903 28.093 177.807 28.093C175.966 28.093 174.994 27.1413 174.994 25.3415Z" fill="#A8AABB"/>
</svg>
