<svg width="28" height="22" viewBox="0 0 28 22" fill="none" 
    xmlns="http://www.w3.org/2000/svg">
    <path d="M27.0769 2.60446C26.07 3.04615 24.9971 3.33892 23.8785 3.48108C25.0292 2.794 25.9075 1.71431 26.3205 0.412923C25.2475 1.05262 24.0629 1.50446 22.8005 1.75662C21.7817 0.671846 20.3297 0 18.7457 0C15.6725 0 13.1983 2.49446 13.1983 5.55246C13.1983 5.99246 13.2355 6.41554 13.3269 6.81831C8.712 6.59323 4.62846 4.38138 1.88523 1.012C1.40631 1.84292 1.12538 2.794 1.12538 3.81785C1.12538 5.74031 2.11538 7.44446 3.59108 8.43108C2.69923 8.41415 1.82431 8.15523 1.08308 7.74739C1.08308 7.76431 1.08308 7.78631 1.08308 7.80831C1.08308 10.5058 3.00723 12.7465 5.53046 13.2626C5.07861 13.3862 4.58615 13.4454 4.07508 13.4454C3.71969 13.4454 3.36092 13.4251 3.02415 13.3506C3.74338 15.5489 5.78431 17.1651 8.21107 17.2175C6.32246 18.6949 3.92446 19.5851 1.32846 19.5851C0.873231 19.5851 0.436615 19.5648 0 19.5089C2.45892 21.0946 5.37308 22 8.51569 22C18.7305 22 24.3151 13.5385 24.3151 6.204C24.3151 5.95862 24.3066 5.72169 24.2948 5.48646C25.3965 4.70462 26.3221 3.72815 27.0769 2.60446Z" fill="currentColor"/>
</svg>
