<svg width="60" height="60" viewBox="0 0 60 60" fill="none" xmlns="http://www.w3.org/2000/svg">
<rect width="60" height="60" rx="20" fill="#F3FAF5"/>
<path fill-rule="evenodd" clip-rule="evenodd" d="M20.6715 42.1835H38.3285C40.353 42.1835 42 40.5364 42 38.5117V26.5038C42 24.4791 40.353 22.832 38.3285 22.832H20.6715C18.647 22.832 17 24.4791 17 26.5038V38.5117C17 40.5364 18.647 42.1835 20.6715 42.1835ZM19.4052 26.5038C19.4052 25.8055 19.9731 25.2373 20.6714 25.2373H38.3284C39.0267 25.2373 39.5947 25.8055 39.5947 26.5038V38.5117C39.5947 39.21 39.0267 39.7782 38.3284 39.7782H20.6714C19.9731 39.7782 19.4052 39.21 19.4052 38.5117V26.5038Z" fill="#58AC6B"/>
<path d="M18.2026 29.0453C17.5384 29.0453 17 28.507 17 27.8427V21.6718C17 19.647 19.0048 18 21.4687 18H33.3559C35.8201 18 37.8249 19.647 37.8249 21.6718V23.7808C37.8249 24.4451 37.2865 24.9834 36.6223 24.9834C35.958 24.9834 35.4196 24.4451 35.4196 23.7808V21.6718C35.4196 21.074 34.5372 20.4052 33.3559 20.4052H21.4687C20.2877 20.4052 19.4052 21.074 19.4052 21.6718V27.8427C19.4052 28.507 18.8669 29.0453 18.2026 29.0453Z" fill="#58AC6B"/>
<path fill-rule="evenodd" clip-rule="evenodd" d="M33.4331 36.2837H42.0002V28.7344H33.4331C31.4086 28.7344 29.7616 30.3814 29.7616 32.4061V32.6119C29.7616 34.6366 31.4086 36.2837 33.4331 36.2837ZM32.1667 32.4059C32.1667 31.7076 32.7346 31.1394 33.433 31.1394H39.5948V33.8782H33.433C32.7346 33.8782 32.1667 33.31 32.1667 32.6117V32.4059Z" fill="#58AC6B"/>
</svg>
