<svg width="18" height="18" viewBox="0 0 18 18" fill="none" xmlns="http://www.w3.org/2000/svg">
<path d="M9 18C13.9706 18 18 13.9706 18 9C18 4.02944 13.9706 0 9 0C4.02944 0 0 4.02944 0 9C0 13.9706 4.02944 18 9 18Z" fill="#F0F0F0"/>
<path d="M14.087 7.82568C13.8131 7.82568 13.4739 7.82568 12.9131 7.82568C12.9131 9.9868 11.1611 11.7387 9.00002 11.7387C6.83886 11.7387 5.08699 9.9868 5.08699 7.82568C4.70871 7.82568 4.2913 7.82568 3.91309 7.82568C3.91309 10.1535 5.4767 12.1162 7.61103 12.7207C7.37703 13.1652 7.41268 13.7248 7.74695 14.1419C8.18598 13.7901 8.64051 13.4258 9.02611 13.1169C9.4117 13.4259 9.86627 13.7901 10.3053 14.1419C10.6428 13.7207 10.6761 13.1539 10.4343 12.7073C12.5452 12.088 14.087 10.137 14.087 7.82568Z" fill="#6DA544"/>
<path d="M5.86963 7.43444C5.86963 7.43444 5.86963 9.39096 7.82614 9.39096L8.21743 9.78225H9.00005C9.00005 9.78225 9.39134 8.60834 10.1739 8.60834C10.1739 8.60834 10.1739 7.82573 10.9566 7.82573C11.7392 7.82573 12.1305 7.82573 12.1305 7.82573C12.1305 7.82573 11.7392 6.2605 13.6957 5.0866L12.9131 4.69531C12.9131 4.69531 10.1739 6.65183 8.21743 6.26054V7.04315H7.43482L7.04353 6.65186L5.86963 7.43444Z" fill="#FFDA44"/>
</svg>
