<svg width="18" height="18" viewBox="0 0 18 18" fill="none" xmlns="http://www.w3.org/2000/svg">
<g clip-path="url(#clip0)">
<path d="M9 18C13.9706 18 18 13.9706 18 9C18 4.02944 13.9706 0 9 0C4.02944 0 0 4.02944 0 9C0 13.9706 4.02944 18 9 18Z" fill="#F0F0F0"/>
<path d="M8.21736 9C8.21736 9 2.64126 15.3652 2.63599 15.3639C4.26463 16.9926 6.51467 18 8.99997 18C13.9705 18 18 13.9705 18 9H8.21736Z" fill="#D80027"/>
<path d="M2.63603 2.6355C-0.878678 6.15021 -0.878678 11.8487 2.63603 15.3635C4.08844 13.9111 5.48531 12.5142 9.00002 8.99948L2.63603 2.6355Z" fill="#0052B4"/>
</g>
<defs>
<clipPath id="clip0">
<rect width="18" height="18" fill="white"/>
</clipPath>
</defs>
</svg>
