<svg width="18" height="18" viewBox="0 0 18 18" fill="none" xmlns="http://www.w3.org/2000/svg">
<g clip-path="url(#clip0)">
<path d="M9 18C13.9706 18 18 13.9706 18 9C18 4.02944 13.9706 0 9 0C4.02944 0 0 4.02944 0 9C0 13.9706 4.02944 18 9 18Z" fill="#F0F0F0"/>
<path d="M7.04349 7.8261H17.9238C17.3485 3.41023 13.5726 0 8.99997 0C8.32796 0 7.67346 0.0742852 7.04346 0.213926V7.8261H7.04349Z" fill="#D80027"/>
<path d="M4.69563 7.82599V1.09424C2.22439 2.44262 0.455262 4.9159 0.0761719 7.82603H4.69563V7.82599Z" fill="#D80027"/>
<path d="M4.6956 10.1743H0.0761719C0.455262 13.0844 2.22439 15.5577 4.69563 16.9061L4.6956 10.1743Z" fill="#D80027"/>
<path d="M7.04346 10.1744V17.7865C7.67346 17.9261 8.32796 18.0004 8.99997 18.0004C13.5726 18.0004 17.3485 14.5902 17.9238 10.1743H7.04346V10.1744Z" fill="#D80027"/>
</g>
<defs>
<clipPath id="clip0">
<rect width="18" height="18" fill="white"/>
</clipPath>
</defs>
</svg>
