<svg width="18" height="18" viewBox="0 0 18 18" fill="none" xmlns="http://www.w3.org/2000/svg">
<g clip-path="url(#clip0)">
<path d="M0 8.99976C0 10.1006 0.198035 11.1552 0.559793 12.1302L9 12.5215L17.4402 12.1302C17.802 11.1552 18 10.1006 18 8.99976C18 7.89888 17.802 6.84434 17.4402 5.86935L9 5.47803L0.559793 5.86932C0.198035 6.84434 0 7.89888 0 8.99976Z" fill="black"/>
<path d="M9.00002 0C5.13034 0 1.83145 2.44237 0.559814 5.86958H17.4403C16.1686 2.44237 12.8697 0 9.00002 0Z" fill="#0052B4"/>
<path d="M17.4402 12.1304H0.559814C1.83145 15.5575 5.13034 18 9.00002 18C12.8697 18 16.1686 15.5575 17.4402 12.1304Z" fill="#F0F0F0"/>
</g>
<defs>
<clipPath id="clip0">
<rect width="18" height="18" fill="white"/>
</clipPath>
</defs>
</svg>
