<svg width="18" height="18" viewBox="0 0 18 18" fill="none" xmlns="http://www.w3.org/2000/svg">
<path d="M9 18C13.9706 18 18 13.9706 18 9C18 4.02944 13.9706 0 9 0C4.02944 0 0 4.02944 0 9C0 13.9706 4.02944 18 9 18Z" fill="#F0F0F0"/>
<path d="M9 6.65253H17.69C17.4643 5.81532 17.1213 5.02638 16.679 4.30469H9V6.65253Z" fill="#338AF3"/>
<path d="M3.39769 16.0432H14.6024C15.4238 15.389 16.1282 14.5944 16.6791 13.6953H1.32104C1.87198 14.5943 2.57637 15.389 3.39769 16.0432Z" fill="#338AF3"/>
<path d="M3.13051 2.177C2.42295 2.78629 1.81126 3.5038 1.32104 4.30381H3.13051V2.177Z" fill="#338AF3"/>
<path d="M9 9.00019C9 8.08345 9 7.31624 9 6.65234H5.47826V9.00019H3.13042V6.65234H0.310043C0.108281 7.40096 0 8.18783 0 9.00019C0 9.81255 0.108281 10.5994 0.310043 11.348H17.69C17.8917 10.5994 18 9.81255 18 9.00019H9Z" fill="#338AF3"/>
<path d="M9.00001 0C7.75024 0 6.56003 0.254988 5.47827 0.715359V4.30436H9.00001C9.00001 3.48479 9.00001 2.78775 9.00001 1.95652H14.6024C13.065 0.732094 11.1181 0 9.00001 0Z" fill="#338AF3"/>
</svg>
