<svg width="18" height="18" viewBox="0 0 18 18" fill="none" xmlns="http://www.w3.org/2000/svg">
<g clip-path="url(#clip0)">
<path d="M9 18C13.9706 18 18 13.9706 18 9C18 4.02944 13.9706 0 9 0C4.02944 0 0 4.02944 0 9C0 13.9706 4.02944 18 9 18Z" fill="#F0F0F0"/>
<path d="M18 9.00023C18 5.13058 15.5576 1.83166 12.1304 0.560059V17.4405C15.5576 16.1688 18 12.8699 18 9.00023Z" fill="#FF9811"/>
<path d="M0 9.00023C0 12.8699 2.44237 16.1688 5.86958 17.4405V0.560059C2.44237 1.83166 0 5.13058 0 9.00023Z" fill="#6DA544"/>
</g>
<defs>
<clipPath id="clip0">
<rect width="18" height="18" fill="white"/>
</clipPath>
</defs>
</svg>
